<svg width="1235" height="286" viewBox="0 0 1235 286" fill="none" xmlns="http://www.w3.org/2000/svg">
<rect width="204.364" height="57.0067" rx="4" fill="#F26444"/>
<path d="M55.4316 21.363V36H53.5206V29.364H46.0656V36H44.1546V21.363H46.0656V27.789H53.5206V21.363H55.4316ZM65.3306 36.147C63.9726 36.147 62.7336 35.832 61.6136 35.202C60.4936 34.558 59.6046 33.669 58.9466 32.535C58.3026 31.387 57.9806 30.099 57.9806 28.671C57.9806 27.243 58.3026 25.962 58.9466 24.828C59.6046 23.68 60.4936 22.791 61.6136 22.161C62.7336 21.517 63.9726 21.195 65.3306 21.195C66.7026 21.195 67.9486 21.517 69.0686 22.161C70.1886 22.791 71.0706 23.673 71.7146 24.807C72.3586 25.941 72.6806 27.229 72.6806 28.671C72.6806 30.113 72.3586 31.401 71.7146 32.535C71.0706 33.669 70.1886 34.558 69.0686 35.202C67.9486 35.832 66.7026 36.147 65.3306 36.147ZM65.3306 34.488C66.3526 34.488 67.2696 34.25 68.0816 33.774C68.9076 33.298 69.5516 32.619 70.0136 31.737C70.4896 30.855 70.7276 29.833 70.7276 28.671C70.7276 27.495 70.4896 26.473 70.0136 25.605C69.5516 24.723 68.9146 24.044 68.1026 23.568C67.2906 23.092 66.3666 22.854 65.3306 22.854C64.2946 22.854 63.3706 23.092 62.5586 23.568C61.7466 24.044 61.1026 24.723 60.6266 25.605C60.1646 26.473 59.9336 27.495 59.9336 28.671C59.9336 29.833 60.1646 30.855 60.6266 31.737C61.1026 32.619 61.7466 33.298 62.5586 33.774C63.3846 34.25 64.3086 34.488 65.3306 34.488ZM90.0504 21.468V36H88.1394V25.164L83.3094 36H81.9654L77.1144 25.143V36H75.2034V21.468H77.2614L82.6374 33.48L88.0134 21.468H90.0504ZM95.2023 22.917V27.81H100.536V29.385H95.2023V34.425H101.166V36H93.2913V21.342H101.166V22.917H95.2023ZM119.443 25.647C119.443 26.865 119.023 27.88 118.183 28.692C117.357 29.49 116.09 29.889 114.382 29.889H111.568V36H109.657V21.363H114.382C116.034 21.363 117.287 21.762 118.141 22.56C119.009 23.358 119.443 24.387 119.443 25.647ZM114.382 28.314C115.446 28.314 116.23 28.083 116.734 27.621C117.238 27.159 117.49 26.501 117.49 25.647C117.49 23.841 116.454 22.938 114.382 22.938H111.568V28.314H114.382ZM130.47 32.745H124.086L122.91 36H120.894L126.186 21.447H128.391L133.662 36H131.646L130.47 32.745ZM129.924 31.191L127.278 23.799L124.632 31.191H129.924ZM147.056 25.605C146.65 24.751 146.062 24.093 145.292 23.631C144.522 23.155 143.626 22.917 142.604 22.917C141.582 22.917 140.658 23.155 139.832 23.631C139.02 24.093 138.376 24.765 137.9 25.647C137.438 26.515 137.207 27.523 137.207 28.671C137.207 29.819 137.438 30.827 137.9 31.695C138.376 32.563 139.02 33.235 139.832 33.711C140.658 34.173 141.582 34.404 142.604 34.404C144.032 34.404 145.208 33.977 146.132 33.123C147.056 32.269 147.595 31.114 147.749 29.658H141.911V28.104H149.786V29.574C149.674 30.778 149.296 31.884 148.652 32.892C148.008 33.886 147.161 34.677 146.111 35.265C145.061 35.839 143.892 36.126 142.604 36.126C141.246 36.126 140.007 35.811 138.887 35.181C137.767 34.537 136.878 33.648 136.22 32.514C135.576 31.38 135.254 30.099 135.254 28.671C135.254 27.243 135.576 25.962 136.22 24.828C136.878 23.68 137.767 22.791 138.887 22.161C140.007 21.517 141.246 21.195 142.604 21.195C144.158 21.195 145.53 21.58 146.72 22.35C147.924 23.12 148.799 24.205 149.345 25.605H147.056ZM154.224 22.917V27.81H159.558V29.385H154.224V34.425H160.188V36H152.313V21.342H160.188V22.917H154.224Z" fill="white"/>
<rect x="260" y="57" width="204.364" height="57.0067" rx="4" fill="#F26444"/>
<path d="M326.974 78.363C328.57 78.363 329.949 78.664 331.111 79.266C332.287 79.854 333.183 80.701 333.799 81.807C334.429 82.913 334.744 84.215 334.744 85.713C334.744 87.211 334.429 88.513 333.799 89.619C333.183 90.711 332.287 91.551 331.111 92.139C329.949 92.713 328.57 93 326.974 93H322.417V78.363H326.974ZM326.974 91.425C328.864 91.425 330.306 90.928 331.3 89.934C332.294 88.926 332.791 87.519 332.791 85.713C332.791 83.893 332.287 82.472 331.279 81.45C330.285 80.428 328.85 79.917 326.974 79.917H324.328V91.425H326.974ZM343.9 93.147C342.542 93.147 341.303 92.832 340.183 92.202C339.063 91.558 338.174 90.669 337.516 89.535C336.872 88.387 336.55 87.099 336.55 85.671C336.55 84.243 336.872 82.962 337.516 81.828C338.174 80.68 339.063 79.791 340.183 79.161C341.303 78.517 342.542 78.195 343.9 78.195C345.272 78.195 346.518 78.517 347.638 79.161C348.758 79.791 349.64 80.673 350.284 81.807C350.928 82.941 351.25 84.229 351.25 85.671C351.25 87.113 350.928 88.401 350.284 89.535C349.64 90.669 348.758 91.558 347.638 92.202C346.518 92.832 345.272 93.147 343.9 93.147ZM343.9 91.488C344.922 91.488 345.839 91.25 346.651 90.774C347.477 90.298 348.121 89.619 348.583 88.737C349.059 87.855 349.297 86.833 349.297 85.671C349.297 84.495 349.059 83.473 348.583 82.605C348.121 81.723 347.484 81.044 346.672 80.568C345.86 80.092 344.936 79.854 343.9 79.854C342.864 79.854 341.94 80.092 341.128 80.568C340.316 81.044 339.672 81.723 339.196 82.605C338.734 83.473 338.503 84.495 338.503 85.671C338.503 86.833 338.734 87.855 339.196 88.737C339.672 89.619 340.316 90.298 341.128 90.774C341.954 91.25 342.878 91.488 343.9 91.488ZM365.281 93H363.37L355.684 81.345V93H353.773V78.342H355.684L363.37 89.976V78.342H365.281V93ZM377.191 89.745H370.807L369.631 93H367.615L372.907 78.447H375.112L380.383 93H378.367L377.191 89.745ZM376.645 88.191L373.999 80.799L371.353 88.191H376.645ZM391.698 78.363V79.917H387.708V93H385.797V79.917H381.786V78.363H391.698ZM395.962 79.917V84.81H401.296V86.385H395.962V91.425H401.926V93H394.051V78.342H401.926V79.917H395.962Z" fill="white"/>
<rect x="520" y="114" width="204.364" height="57.0067" rx="4" fill="#F26444"/>
<path d="M557.114 139.647C557.114 140.865 556.694 141.88 555.854 142.692C555.028 143.49 553.761 143.889 552.053 143.889H549.239V150H547.328V135.363H552.053C553.705 135.363 554.958 135.762 555.812 136.56C556.68 137.358 557.114 138.387 557.114 139.647ZM552.053 142.314C553.117 142.314 553.901 142.083 554.405 141.621C554.909 141.159 555.161 140.501 555.161 139.647C555.161 137.841 554.125 136.938 552.053 136.938H549.239V142.314H552.053ZM568.141 146.745H561.757L560.581 150H558.565L563.857 135.447H566.062L571.333 150H569.317L568.141 146.745ZM567.595 145.191L564.949 137.799L562.303 145.191H567.595ZM583.887 135.363L579.12 144.477V150H577.209V144.477L572.421 135.363H574.542L578.154 142.776L581.766 135.363H583.887ZM600.75 135.468V150H598.839V139.164L594.009 150H592.665L587.814 139.143V150H585.903V135.468H587.961L593.337 147.48L598.713 135.468H600.75ZM605.902 136.917V141.81H611.236V143.385H605.902V148.425H611.866V150H603.991V135.342H611.866V136.917H605.902ZM626.266 150H624.355L616.669 138.345V150H614.758V135.342H616.669L624.355 146.976V135.342H626.266V150ZM638.532 135.363V136.917H634.542V150H632.631V136.917H628.62V135.363H638.532ZM656.269 139.647C656.269 140.865 655.849 141.88 655.009 142.692C654.183 143.49 652.916 143.889 651.208 143.889H648.394V150H646.483V135.363H651.208C652.86 135.363 654.113 135.762 654.967 136.56C655.835 137.358 656.269 138.387 656.269 139.647ZM651.208 142.314C652.272 142.314 653.056 142.083 653.56 141.621C654.064 141.159 654.316 140.501 654.316 139.647C654.316 137.841 653.28 136.938 651.208 136.938H648.394V142.314H651.208ZM667.296 146.745H660.912L659.736 150H657.72L663.012 135.447H665.217L670.488 150H668.472L667.296 146.745ZM666.75 145.191L664.104 137.799L661.458 145.191H666.75ZM683.883 139.605C683.477 138.751 682.889 138.093 682.119 137.631C681.349 137.155 680.453 136.917 679.431 136.917C678.409 136.917 677.485 137.155 676.659 137.631C675.847 138.093 675.203 138.765 674.727 139.647C674.265 140.515 674.034 141.523 674.034 142.671C674.034 143.819 674.265 144.827 674.727 145.695C675.203 146.563 675.847 147.235 676.659 147.711C677.485 148.173 678.409 148.404 679.431 148.404C680.859 148.404 682.035 147.977 682.959 147.123C683.883 146.269 684.422 145.114 684.576 143.658H678.738V142.104H686.613V143.574C686.501 144.778 686.123 145.884 685.479 146.892C684.835 147.886 683.988 148.677 682.938 149.265C681.888 149.839 680.719 150.126 679.431 150.126C678.073 150.126 676.834 149.811 675.714 149.181C674.594 148.537 673.705 147.648 673.047 146.514C672.403 145.38 672.081 144.099 672.081 142.671C672.081 141.243 672.403 139.962 673.047 138.828C673.705 137.68 674.594 136.791 675.714 136.161C676.834 135.517 678.073 135.195 679.431 135.195C680.985 135.195 682.357 135.58 683.547 136.35C684.751 137.12 685.626 138.205 686.172 139.605H683.883ZM691.05 136.917V141.81H696.384V143.385H691.05V148.425H697.014V150H689.139V135.342H697.014V136.917H691.05Z" fill="white"/>
<rect x="780" y="171" width="204.364" height="57.0067" rx="4" fill="#F26444"/>
<path d="M856.909 180.917V185.81H862.243V187.385H856.909V192.425H862.873V194H854.998V179.342H862.873V180.917H856.909ZM880.612 179.468V194H878.701V183.164L873.871 194H872.527L867.676 183.143V194H865.765V179.468H867.823L873.199 191.48L878.575 179.468H880.612ZM892.505 190.745H886.121L884.945 194H882.929L888.221 179.447H890.426L895.697 194H893.681L892.505 190.745ZM891.959 189.191L889.313 181.799L886.667 189.191H891.959ZM899.914 179.363V194H898.003V179.363H899.914ZM905.082 192.446H910.206V194H903.171V179.363H905.082V192.446ZM804.871 218.671C804.871 217.243 805.193 215.962 805.837 214.828C806.481 213.68 807.356 212.784 808.462 212.14C809.582 211.496 810.821 211.174 812.179 211.174C813.775 211.174 815.168 211.559 816.358 212.329C817.548 213.099 818.416 214.191 818.962 215.605H816.673C816.267 214.723 815.679 214.044 814.909 213.568C814.153 213.092 813.243 212.854 812.179 212.854C811.157 212.854 810.24 213.092 809.428 213.568C808.616 214.044 807.979 214.723 807.517 215.605C807.055 216.473 806.824 217.495 806.824 218.671C806.824 219.833 807.055 220.855 807.517 221.737C807.979 222.605 808.616 223.277 809.428 223.753C810.24 224.229 811.157 224.467 812.179 224.467C813.243 224.467 814.153 224.236 814.909 223.774C815.679 223.298 816.267 222.619 816.673 221.737H818.962C818.416 223.137 817.548 224.222 816.358 224.992C815.168 225.748 813.775 226.126 812.179 226.126C810.821 226.126 809.582 225.811 808.462 225.181C807.356 224.537 806.481 223.648 805.837 222.514C805.193 221.38 804.871 220.099 804.871 218.671ZM828.442 226.147C827.084 226.147 825.845 225.832 824.725 225.202C823.605 224.558 822.716 223.669 822.058 222.535C821.414 221.387 821.092 220.099 821.092 218.671C821.092 217.243 821.414 215.962 822.058 214.828C822.716 213.68 823.605 212.791 824.725 212.161C825.845 211.517 827.084 211.195 828.442 211.195C829.814 211.195 831.06 211.517 832.18 212.161C833.3 212.791 834.182 213.673 834.826 214.807C835.47 215.941 835.792 217.229 835.792 218.671C835.792 220.113 835.47 221.401 834.826 222.535C834.182 223.669 833.3 224.558 832.18 225.202C831.06 225.832 829.814 226.147 828.442 226.147ZM828.442 224.488C829.464 224.488 830.381 224.25 831.193 223.774C832.019 223.298 832.663 222.619 833.125 221.737C833.601 220.855 833.839 219.833 833.839 218.671C833.839 217.495 833.601 216.473 833.125 215.605C832.663 214.723 832.026 214.044 831.214 213.568C830.402 213.092 829.478 212.854 828.442 212.854C827.406 212.854 826.482 213.092 825.67 213.568C824.858 214.044 824.214 214.723 823.738 215.605C823.276 216.473 823.045 217.495 823.045 218.671C823.045 219.833 823.276 220.855 823.738 221.737C824.214 222.619 824.858 223.298 825.67 223.774C826.496 224.25 827.42 224.488 828.442 224.488ZM849.823 226H847.912L840.226 214.345V226H838.315V211.342H840.226L847.912 222.976V211.342H849.823V226ZM861.355 211.363V212.917H854.992V217.852H860.158V219.406H854.992V226H853.081V211.363H861.355ZM865.574 211.363V226H863.663V211.363H865.574ZM876.538 226L873.052 220.015H870.742V226H868.831V211.363H873.556C874.662 211.363 875.593 211.552 876.349 211.93C877.119 212.308 877.693 212.819 878.071 213.463C878.449 214.107 878.638 214.842 878.638 215.668C878.638 216.676 878.344 217.565 877.756 218.335C877.182 219.105 876.314 219.616 875.152 219.868L878.827 226H876.538ZM870.742 218.482H873.556C874.592 218.482 875.369 218.23 875.887 217.726C876.405 217.208 876.664 216.522 876.664 215.668C876.664 214.8 876.405 214.128 875.887 213.652C875.383 213.176 874.606 212.938 873.556 212.938H870.742V218.482ZM896.454 211.468V226H894.543V215.164L889.713 226H888.369L883.518 215.143V226H881.607V211.468H883.665L889.041 223.48L894.417 211.468H896.454ZM908.347 222.745H901.963L900.787 226H898.771L904.063 211.447H906.268L911.539 226H909.523L908.347 222.745ZM907.801 221.191L905.155 213.799L902.509 221.191H907.801ZM922.855 211.363V212.917H918.865V226H916.954V212.917H912.943V211.363H922.855ZM927.118 211.363V226H925.207V211.363H927.118ZM937.011 226.147C935.653 226.147 934.414 225.832 933.294 225.202C932.174 224.558 931.285 223.669 930.627 222.535C929.983 221.387 929.661 220.099 929.661 218.671C929.661 217.243 929.983 215.962 930.627 214.828C931.285 213.68 932.174 212.791 933.294 212.161C934.414 211.517 935.653 211.195 937.011 211.195C938.383 211.195 939.629 211.517 940.749 212.161C941.869 212.791 942.751 213.673 943.395 214.807C944.039 215.941 944.361 217.229 944.361 218.671C944.361 220.113 944.039 221.401 943.395 222.535C942.751 223.669 941.869 224.558 940.749 225.202C939.629 225.832 938.383 226.147 937.011 226.147ZM937.011 224.488C938.033 224.488 938.95 224.25 939.762 223.774C940.588 223.298 941.232 222.619 941.694 221.737C942.17 220.855 942.408 219.833 942.408 218.671C942.408 217.495 942.17 216.473 941.694 215.605C941.232 214.723 940.595 214.044 939.783 213.568C938.971 213.092 938.047 212.854 937.011 212.854C935.975 212.854 935.051 213.092 934.239 213.568C933.427 214.044 932.783 214.723 932.307 215.605C931.845 216.473 931.614 217.495 931.614 218.671C931.614 219.833 931.845 220.855 932.307 221.737C932.783 222.619 933.427 223.298 934.239 223.774C935.065 224.25 935.989 224.488 937.011 224.488ZM958.392 226H956.481L948.795 214.345V226H946.884V211.342H948.795L956.481 222.976V211.342H958.392V226Z" fill="white"/>
<path d="M105 59V89H261" stroke="#9CD1B8" stroke-width="5"/>
<circle cx="260" cy="89" r="6" fill="#9CD1B8"/>
<path d="M362 114V144H518" stroke="#9CD1B8" stroke-width="5"/>
<circle cx="517" cy="144" r="6" fill="#9CD1B8"/>
<path d="M622 171V201H778" stroke="#9CD1B8" stroke-width="5"/>
<circle cx="777" cy="201" r="6" fill="#9CD1B8"/>
<rect x="1030" y="228" width="204.364" height="57.0067" rx="4" fill="#F26444"/>
<path d="M1045.01 256.671C1045.01 255.243 1045.33 253.962 1045.97 252.828C1046.62 251.68 1047.49 250.784 1048.6 250.14C1049.72 249.496 1050.96 249.174 1052.31 249.174C1053.91 249.174 1055.3 249.559 1056.49 250.329C1057.68 251.099 1058.55 252.191 1059.1 253.605H1056.81C1056.4 252.723 1055.81 252.044 1055.04 251.568C1054.29 251.092 1053.38 250.854 1052.31 250.854C1051.29 250.854 1050.38 251.092 1049.56 251.568C1048.75 252.044 1048.11 252.723 1047.65 253.605C1047.19 254.473 1046.96 255.495 1046.96 256.671C1046.96 257.833 1047.19 258.855 1047.65 259.737C1048.11 260.605 1048.75 261.277 1049.56 261.753C1050.38 262.229 1051.29 262.467 1052.31 262.467C1053.38 262.467 1054.29 262.236 1055.04 261.774C1055.81 261.298 1056.4 260.619 1056.81 259.737H1059.1C1058.55 261.137 1057.68 262.222 1056.49 262.992C1055.3 263.748 1053.91 264.126 1052.31 264.126C1050.96 264.126 1049.72 263.811 1048.6 263.181C1047.49 262.537 1046.62 261.648 1045.97 260.514C1045.33 259.38 1045.01 258.099 1045.01 256.671ZM1068.58 264.147C1067.22 264.147 1065.98 263.832 1064.86 263.202C1063.74 262.558 1062.85 261.669 1062.19 260.535C1061.55 259.387 1061.23 258.099 1061.23 256.671C1061.23 255.243 1061.55 253.962 1062.19 252.828C1062.85 251.68 1063.74 250.791 1064.86 250.161C1065.98 249.517 1067.22 249.195 1068.58 249.195C1069.95 249.195 1071.2 249.517 1072.32 250.161C1073.44 250.791 1074.32 251.673 1074.96 252.807C1075.61 253.941 1075.93 255.229 1075.93 256.671C1075.93 258.113 1075.61 259.401 1074.96 260.535C1074.32 261.669 1073.44 262.558 1072.32 263.202C1071.2 263.832 1069.95 264.147 1068.58 264.147ZM1068.58 262.488C1069.6 262.488 1070.52 262.25 1071.33 261.774C1072.16 261.298 1072.8 260.619 1073.26 259.737C1073.74 258.855 1073.98 257.833 1073.98 256.671C1073.98 255.495 1073.74 254.473 1073.26 253.605C1072.8 252.723 1072.16 252.044 1071.35 251.568C1070.54 251.092 1069.61 250.854 1068.58 250.854C1067.54 250.854 1066.62 251.092 1065.81 251.568C1064.99 252.044 1064.35 252.723 1063.87 253.605C1063.41 254.473 1063.18 255.495 1063.18 256.671C1063.18 257.833 1063.41 258.855 1063.87 259.737C1064.35 260.619 1064.99 261.298 1065.81 261.774C1066.63 262.25 1067.56 262.488 1068.58 262.488ZM1093.3 249.468V264H1091.39V253.164L1086.56 264H1085.21L1080.36 253.143V264H1078.45V249.468H1080.51L1085.88 261.48L1091.26 249.468H1093.3ZM1106.32 253.647C1106.32 254.865 1105.9 255.88 1105.06 256.692C1104.24 257.49 1102.97 257.889 1101.26 257.889H1098.45V264H1096.54V249.363H1101.26C1102.92 249.363 1104.17 249.762 1105.02 250.56C1105.89 251.358 1106.32 252.387 1106.32 253.647ZM1101.26 256.314C1102.33 256.314 1103.11 256.083 1103.62 255.621C1104.12 255.159 1104.37 254.501 1104.37 253.647C1104.37 251.841 1103.34 250.938 1101.26 250.938H1098.45V256.314H1101.26ZM1110.61 262.446H1115.74V264H1108.7V249.363H1110.61V262.446ZM1119.68 250.917V255.81H1125.01V257.385H1119.68V262.425H1125.64V264H1117.76V249.342H1125.64V250.917H1119.68ZM1137.54 249.363V250.917H1133.55V264H1131.64V250.917H1127.63V249.363H1137.54ZM1141.8 250.917V255.81H1147.14V257.385H1141.8V262.425H1147.77V264H1139.89V249.342H1147.77V250.917H1141.8ZM1155.22 249.363C1156.81 249.363 1158.19 249.664 1159.35 250.266C1160.53 250.854 1161.42 251.701 1162.04 252.807C1162.67 253.913 1162.99 255.215 1162.99 256.713C1162.99 258.211 1162.67 259.513 1162.04 260.619C1161.42 261.711 1160.53 262.551 1159.35 263.139C1158.19 263.713 1156.81 264 1155.22 264H1150.66V249.363H1155.22ZM1155.22 262.425C1157.11 262.425 1158.55 261.928 1159.54 260.934C1160.54 259.926 1161.03 258.519 1161.03 256.713C1161.03 254.893 1160.53 253.472 1159.52 252.45C1158.53 251.428 1157.09 250.917 1155.22 250.917H1152.57V262.425H1155.22ZM1180.11 249.363V250.917H1176.12V264H1174.21V250.917H1170.2V249.363H1180.11ZM1191.12 260.745H1184.73L1183.56 264H1181.54L1186.83 249.447H1189.04L1194.31 264H1192.29L1191.12 260.745ZM1190.57 259.191L1187.93 251.799L1185.28 259.191H1190.57ZM1201.26 264.147C1200.29 264.147 1199.42 263.979 1198.65 263.643C1197.9 263.293 1197.3 262.817 1196.87 262.215C1196.44 261.599 1196.21 260.892 1196.2 260.094H1198.23C1198.3 260.78 1198.58 261.361 1199.07 261.837C1199.58 262.299 1200.31 262.53 1201.26 262.53C1202.17 262.53 1202.88 262.306 1203.4 261.858C1203.93 261.396 1204.2 260.808 1204.2 260.094C1204.2 259.534 1204.04 259.079 1203.74 258.729C1203.43 258.379 1203.04 258.113 1202.58 257.931C1202.12 257.749 1201.5 257.553 1200.71 257.343C1199.75 257.091 1198.97 256.839 1198.38 256.587C1197.81 256.335 1197.31 255.943 1196.89 255.411C1196.48 254.865 1196.28 254.137 1196.28 253.227C1196.28 252.429 1196.48 251.722 1196.89 251.106C1197.3 250.49 1197.86 250.014 1198.59 249.678C1199.33 249.342 1200.18 249.174 1201.13 249.174C1202.5 249.174 1203.62 249.517 1204.49 250.203C1205.37 250.889 1205.87 251.799 1205.98 252.933H1203.88C1203.81 252.373 1203.52 251.883 1203 251.463C1202.48 251.029 1201.8 250.812 1200.94 250.812C1200.15 250.812 1199.49 251.022 1198.99 251.442C1198.49 251.848 1198.23 252.422 1198.23 253.164C1198.23 253.696 1198.38 254.13 1198.68 254.466C1198.98 254.802 1199.35 255.061 1199.79 255.243C1200.24 255.411 1200.86 255.607 1201.66 255.831C1202.62 256.097 1203.4 256.363 1203.99 256.629C1204.58 256.881 1205.08 257.28 1205.5 257.826C1205.92 258.358 1206.13 259.086 1206.13 260.01C1206.13 260.724 1205.94 261.396 1205.56 262.026C1205.19 262.656 1204.63 263.167 1203.88 263.559C1203.14 263.951 1202.27 264.147 1201.26 264.147ZM1216.88 264L1210.85 257.322V264H1208.94V249.363H1210.85V256.146L1216.9 249.363H1219.32L1212.68 256.692L1219.38 264H1216.88Z" fill="white"/>
<path d="M872 228V258H1028" stroke="#9CD1B8" stroke-width="5"/>
<circle cx="1027" cy="258" r="6" fill="#9CD1B8"/>
</svg>
