<svg xmlns="http://www.w3.org/2000/svg" width="126.816" height="80.024" viewBox="0 0 126.816 80.024">
  <g id="Group_7" data-name="Group 7" transform="translate(0 0)">
    <path id="Path_20" data-name="Path 20" d="M3092.962,585.162h14.366l28.029,46.716,27.8-46.716h13.43v74.4h-16.117v-44.5l-22.19,36.789H3130.8Z" transform="translate(-3049.769 -579.533)" fill="#3e3b3b"/>
    <path id="Path_21" data-name="Path 21" d="M3083.2,588.139v3.681l8.465,1.288.133,64.033-7.493,2.952v3.864h28.155v-3.864l-5.89-2.952V627.7s2.385-5.872,6.3-8.172,9.548-.67,9.548-.67,2.5,1.313,3.686,6.366.838,31.913.838,31.913l-5.948,2.952v3.864h27.977v-3.864l-7.119-2.952V626.149a26.894,26.894,0,0,0-2.437-8.4,19.968,19.968,0,0,0-5.25-6,18,18,0,0,0-15.6-1.089c-4.166,1.382-4.374,1.57-7.371,4.439a22.3,22.3,0,0,0-4.621,7.036v-38.2a118.346,118.346,0,0,0-11.964,1.424A108.6,108.6,0,0,0,3083.2,588.139Z" transform="translate(-3083.196 -583.933)" fill="#144d7e"/>
    <path id="Path_22" data-name="Path 22" d="M3092.962,585.162h14.366l28.029,46.716,27.8-46.716h13.43v74.4h-16.117v-44.5l-22.19,36.789H3130.8Z" transform="translate(-3049.769 -579.533)" fill="#3e3b3b"/>
  </g>
</svg>
