<svg xmlns="http://www.w3.org/2000/svg" width="58.899" height="37.167" viewBox="0 0 58.899 37.167">
  <g id="Group_3" data-name="Group 3" transform="translate(0)">
    <path id="Path_15" data-name="Path 15" d="M3092.962,585.162h6.672l13.018,21.7,12.91-21.7h6.238v34.552h-7.485V599.048l-10.306,17.086h-3.472Z" transform="translate(-3072.901 -582.548)" fill="#3e3b3b"/>
    <path id="Path_16" data-name="Path 16" d="M3083.2,585.886v1.71l3.932.6.062,29.74-3.48,1.371V621.1h13.077V619.3l-2.735-1.371V604.262s1.108-2.727,2.924-3.8,4.435-.311,4.435-.311,1.163.61,1.711,2.957.389,14.822.389,14.822l-2.762,1.371V621.1h12.993V619.3l-3.306-1.371V603.54a12.5,12.5,0,0,0-1.131-3.9,9.271,9.271,0,0,0-2.438-2.788,8.36,8.36,0,0,0-7.245-.506,6.268,6.268,0,0,0-3.424,2.062,10.362,10.362,0,0,0-2.146,3.268v-17.74a54.968,54.968,0,0,0-5.557.661A50.461,50.461,0,0,0,3083.2,585.886Z" transform="translate(-3083.196 -583.933)" fill="#4187a1"/>
    <path id="Path_17" data-name="Path 17" d="M3092.962,585.162h6.672l13.018,21.7,12.91-21.7h6.238v34.552h-7.485V599.048l-10.306,17.086h-3.472Z" transform="translate(-3072.901 -582.548)" fill="#3e3b3b"/>
  </g>
</svg>
