<svg xmlns="http://www.w3.org/2000/svg" width="49" height="49" viewBox="0 0 49 49">
  <defs>
    <style>
      .cls-1 {
        fill: #fef9e8;
      }

      .cls-2 {
        fill: #fff;
      }
    </style>
  </defs>
  <g id="Group_334" data-name="Group 334" transform="translate(-1143 -3189)">
    <rect id="Rectangle_113" data-name="Rectangle 113" class="cls-1" width="49" height="49" transform="translate(1143 3189)"/>
    <g id="Group_333" data-name="Group 333" transform="translate(1153.938 3203.824)">
      <path id="Path_446" data-name="Path 446" class="cls-2" d="M171.283,144.362a4.616,4.616,0,0,1,.655,2.528,4.915,4.915,0,0,1-.749,2.683,4.725,4.725,0,0,1-1.217,1.343,4.534,4.534,0,0,1-1.919.843,12.325,12.325,0,0,1-2.387.218H158.02V135H166.2q3.12.063,4.4,1.81a4.28,4.28,0,0,1,.78,2.606,3.752,3.752,0,0,1-.78,2.481,4.036,4.036,0,0,1-1.28.967A3.72,3.72,0,0,1,171.283,144.362Zm-9.362-2.683h3.589a3.436,3.436,0,0,0,1.81-.421,1.6,1.6,0,0,0,.687-1.482,1.511,1.511,0,0,0-.905-1.56,6.276,6.276,0,0,0-2.029-.281h-3.152v3.745Zm6.429,4.93a1.817,1.817,0,0,0-1.092-1.809,4.043,4.043,0,0,0-1.685-.281h-3.651v4.525h3.589a3.779,3.779,0,0,0,1.716-.311A2.151,2.151,0,0,0,168.35,146.609Zm16.852-2.746a15.27,15.27,0,0,1,.094,2.4h-8.832a2.863,2.863,0,0,0,1.248,2.558,3.191,3.191,0,0,0,1.779.469,2.671,2.671,0,0,0,1.748-.562,2.337,2.337,0,0,0,.655-.843h3.246a3.963,3.963,0,0,1-1.186,2.216,5.9,5.9,0,0,1-4.588,1.778,6.592,6.592,0,0,1-4.26-1.5q-1.857-1.5-1.857-4.868a6.625,6.625,0,0,1,1.67-4.868,5.857,5.857,0,0,1,4.353-1.685,6.96,6.96,0,0,1,2.855.562,4.95,4.95,0,0,1,2.107,1.81A6.008,6.008,0,0,1,185.2,143.863Zm-2.528-6.46h-6.866v-1.716h6.866Zm-.655,6.772a2.68,2.68,0,0,0-.858-1.934,2.8,2.8,0,0,0-1.888-.655,2.49,2.49,0,0,0-1.888.7,3.427,3.427,0,0,0-.858,1.888Z" transform="translate(-158.02 -135)"/>
    </g>
  </g>
</svg>
