<svg id="Group_256" data-name="Group 256" xmlns="http://www.w3.org/2000/svg" width="50.323" height="50.497" viewBox="0 0 50.323 50.497">
  <defs>
    <style>
      .cls-1 {
        fill: #fef9e8;
      }
    </style>
  </defs>
  <path id="Path_369" data-name="Path 369" class="cls-1" d="M92.336,575.039V564.13a1.538,1.538,0,0,1,.115-.779,2.273,2.273,0,0,1,.808-.375l.519-.115v12.177h2.078V562.628h1.327v12.409h2.078V562.572h27.3a9.4,9.4,0,0,1,4.819,1.3,10.224,10.224,0,0,1,3.578,3.491,9.265,9.265,0,0,1,1.414,4.732q.056,1.443.058,3.463-.058,4.272-.058,3.519H120.9a.993.993,0,0,1-.808-.346,13.292,13.292,0,0,0-5.713-3.116,12.456,12.456,0,0,0-6.348.03,13.523,13.523,0,0,0-5.713,3.145.83.83,0,0,1-.577.289H86.449l-.289-.058v-2.193q-.058.69-.058-2.656a25.639,25.639,0,0,1,.115-2.655,9.347,9.347,0,0,1,3.867-6.983l.231-.058v10.561h2.02Zm29.432,5.6h14.6v22.678a9.484,9.484,0,0,1-1.327,4.905,9.749,9.749,0,0,1-3.578,3.549,9.648,9.648,0,0,1-4.905,1.3H95.971a9.108,9.108,0,0,1-4.905-1.271,10.184,10.184,0,0,1-3.607-3.577,9.325,9.325,0,0,1-1.356-4.905V580.691h14.6a12.7,12.7,0,0,0-1.616,11.657,13.118,13.118,0,0,0,10.359,8.454,13.025,13.025,0,0,0,5.511-.434,12.611,12.611,0,0,0,4.848-2.712,12.255,12.255,0,0,0,3.232-4.617,13,13,0,0,0,.981-6A13.981,13.981,0,0,0,121.768,580.635Zm-10.5,17.313a10.064,10.064,0,0,1-5.021-1.3,9.544,9.544,0,0,1-3.636-3.577,9.94,9.94,0,0,1,0-9.925,9.977,9.977,0,0,1,3.636-3.637,9.69,9.69,0,0,1,4.992-1.355,9.542,9.542,0,0,1,4.963,1.355,10.065,10.065,0,0,1,3.607,3.637,9.94,9.94,0,0,1,0,9.925,9.6,9.6,0,0,1-3.607,3.577A9.788,9.788,0,0,1,111.264,597.948Zm7.271-9.867a7.382,7.382,0,0,0-3.636-6.348,7.335,7.335,0,0,0-7.329,0,7.329,7.329,0,0,0-2.655,2.655,7.334,7.334,0,0,0,0,7.329,7.509,7.509,0,0,0,2.655,2.683,6.956,6.956,0,0,0,3.665,1.01,7.109,7.109,0,0,0,3.665-.983,7.306,7.306,0,0,0,2.655-2.655A7.165,7.165,0,0,0,118.536,588.081Zm13.273-17.024V568.4a1.6,1.6,0,0,0-.433-1.182,1.522,1.522,0,0,0-1.125-.433q-2.655-.056-5.367,0a1.451,1.451,0,0,0-1.154.46,1.775,1.775,0,0,0-.4,1.212v5.311a1.592,1.592,0,0,0,.433,1.182,1.523,1.523,0,0,0,1.125.434h5.309a1.5,1.5,0,0,0,1.616-1.616Z" transform="translate(-86.103 -562.572)"/>
</svg>
