<svg id="Group_262" data-name="Group 262" xmlns="http://www.w3.org/2000/svg" width="50.207" height="50.496" viewBox="0 0 50.207 50.496">
  <defs>
    <style>
      .cls-1 {
        fill: #fef9e8;
      }
    </style>
  </defs>
  <path id="Path_375" data-name="Path 375" class="cls-1" d="M132.805,633.073a3.667,3.667,0,0,1,2.655,1.066,3.462,3.462,0,0,1,1.1,2.568V679.99a3.363,3.363,0,0,1-1.1,2.539,3.652,3.652,0,0,1-2.6,1.04H90.042a3.641,3.641,0,0,1-2.6-1.04,3.358,3.358,0,0,1-1.1-2.539V636.707a3.456,3.456,0,0,1,1.1-2.568,3.665,3.665,0,0,1,2.655-1.066h42.705Zm-31.913,15.263a4.041,4.041,0,0,0,0-5.656,4.194,4.194,0,0,0-3.059-1.124,4.3,4.3,0,0,0-3.087,1.124,3.741,3.741,0,0,0-1.183,2.828,3.781,3.781,0,0,0,1.154,2.828,4.111,4.111,0,0,0,3,1.125h.058A4.262,4.262,0,0,0,100.892,648.336Zm.693,4.243h-7.56v22.8h7.56Zm27.3,9.7q0-5.018-2.482-7.732a8.964,8.964,0,0,0-10.792-1.213,8.938,8.938,0,0,0-2.251,2.483V652.58H105.8q.056,1.327,0,12.177v10.617h7.56V662.62a5.667,5.667,0,0,1,.231-1.847,4.6,4.6,0,0,1,1.385-1.9,3.833,3.833,0,0,1,2.539-.867,3.326,3.326,0,0,1,2.943,1.443,6.73,6.73,0,0,1,.866,3.695v12.233h7.56Z" transform="translate(-86.349 -633.073)"/>
</svg>
