<svg xmlns="http://www.w3.org/2000/svg" width="39.344" height="39.345" viewBox="0 0 39.344 39.345">
  <defs>
    <style>
      .cls-1 {
        fill: #fef9e8;
      }
    </style>
  </defs>
  <path id="Icon_awesome-plus" data-name="Icon awesome-plus" class="cls-1" d="M36.534,17.707H23.888V5.06a2.811,2.811,0,0,0-2.81-2.81h-2.81a2.811,2.811,0,0,0-2.81,2.81V17.707H2.81A2.811,2.811,0,0,0,0,20.517v2.81a2.811,2.811,0,0,0,2.81,2.81H15.457V38.784a2.811,2.811,0,0,0,2.81,2.81h2.81a2.811,2.811,0,0,0,2.81-2.81V26.138H36.534a2.811,2.811,0,0,0,2.81-2.81v-2.81A2.811,2.811,0,0,0,36.534,17.707Z" transform="translate(0 -2.25)"/>
</svg>
